# xmcd
#
# Track frame offsets: 
#        150
#        17160
#        32351
#        48904
#        66080
#        79583
#        92786
#        109217
#        127581
#        140598
#
# Disc length: 2085 seconds
#
# Revision: 0
# Processed by: cddbd v1.5.2PL0 Copyright (c) Steve Scherf et al.
# Submitted via: ExactAudioCopy v0.99pb5
#
DISCID=7608230a
DTITLE=No Justice - 2nd Avenue
DYEAR=2010
DGENRE=Country
TTITLE0=Goin Nowhere
TTITLE1=WW III
TTITLE2=2nd Avenue
TTITLE3=5 More Minutes
TTITLE4=Just Get Going
TTITLE5=Coming Up the River
TTITLE6=Love Song
TTITLE7=Gone Ain't Far Enough
TTITLE8=Broken Heart Tattoo
TTITLE9=Heart On A Chain
EXTD=
EXTT0=
EXTT1=
EXTT2=
EXTT3=
EXTT4=
EXTT5=
EXTT6=
EXTT7=
EXTT8=
EXTT9=
PLAYORDER=
